<svg width="20" height="24" viewBox="0 0 20 24" fill="none" xmlns="http://www.w3.org/2000/svg">
<g clip-path="url(#clip0_401_23621)">
<path fill-rule="evenodd" clip-rule="evenodd" d="M5.51207 6.52152H3.01922C1.64213 6.52152 0.526367 7.63693 0.526367 9.01147V20.9636C0.526367 22.3391 1.64307 23.4536 3.01922 23.4536H16.9799C18.357 23.4536 19.4728 22.3382 19.4728 20.9636V9.01147C19.4728 7.63599 18.3561 6.52152 16.9799 6.52152H14.4871V5.02774C14.4871 2.55186 12.4783 0.545441 9.99958 0.545441C7.52083 0.545441 5.51207 2.55186 5.51207 5.02774V6.52152ZM14.4871 7.51769V12.9962C14.4871 13.2713 14.2634 13.4938 13.9889 13.4938C13.7144 13.4938 13.4907 13.2703 13.4907 12.9962V7.51769H6.5094V12.9962C6.5094 13.2713 6.28568 13.4938 6.0112 13.4938C5.73673 13.4938 5.51301 13.2703 5.51301 12.9962V7.51769H3.02016C2.19391 7.51769 1.52464 8.18618 1.52464 9.01147V20.9636C1.52464 21.7889 2.19391 22.4574 3.02016 22.4574H16.9809C17.8071 22.4574 18.4764 21.7889 18.4764 20.9636V9.01147C18.4764 8.18618 17.8071 7.51769 16.9809 7.51769H14.488H14.4871ZM13.4898 6.52152V5.02774C13.4898 3.10206 11.9275 1.54161 9.99958 1.54161C8.07166 1.54161 6.5094 3.10206 6.5094 5.02774V6.52152H13.4898Z" fill="white" stroke="white" stroke-width="0.5"/>
</g>
<defs>
<clipPath id="clip0_401_23621">
<rect width="20" height="24" fill="white"/>
</clipPath>
</defs>
</svg>
