<svg width="26" height="16" viewBox="0 0 26 16" fill="none" xmlns="http://www.w3.org/2000/svg">
<path d="M15.9378 7.87328C15.8295 7.97255 15.6972 8.01285 15.578 8.01285C15.4727 8.01285 15.3535 7.98094 15.2497 7.9012C15.1293 7.80861 15.0443 7.66039 15.0414 7.48613M15.9378 7.87328L15.0283 2.94795L15.0284 2.94777C15.0091 3.77132 14.981 5.02261 15.0205 6.62979M15.9378 7.87328L16.5746 7.31167L16.5747 7.31151C17.3081 6.66402 18.1023 5.49843 18.7705 4.35289C19.4447 3.19723 20.0271 1.99777 20.3289 1.2286C20.4383 0.967817 20.5854 0.793356 20.7539 0.681648C20.9235 0.56915 21.1454 0.5 21.4353 0.5H24.1912C24.624 0.5 24.8039 0.615918 24.8974 0.740113C24.941 0.798071 25.0483 0.973292 24.9413 1.37391L24.9374 1.38713L24.9331 1.40203L24.9302 1.4119L24.9277 1.42188L24.9256 1.43017L24.9143 1.46929L24.8946 1.53741V1.54953C24.8003 1.87138 24.5955 2.33473 24.309 2.88909C24.0114 3.46484 23.6411 4.10934 23.2558 4.74458C22.4834 6.0179 21.666 7.22864 21.2792 7.74283L21.2581 7.77095L21.2411 7.80176L21.1225 8.01646L15.9378 7.87328ZM15.0414 7.48613C15.0413 7.48306 15.0413 7.47998 15.0413 7.4769H15.5413L15.0415 7.48908L15.0414 7.48613ZM15.0414 7.48613L15.0205 6.62979M15.0205 6.62979L15.5203 6.61749L15.0205 6.62967L15.0205 6.62979ZM15.0336 2.70766L15.0284 2.94716L21.5374 8.29597C21.4685 8.38893 21.4344 8.49942 21.4475 8.59414L20.9521 8.66192C20.9522 8.66214 20.9522 8.66237 20.9522 8.66259C20.9781 8.85046 21.0695 9.00794 21.1988 9.124C21.3164 9.27333 21.5245 9.49058 21.8513 9.83194L21.8605 9.84146L21.8605 9.84152C22.3899 10.3941 23.1921 11.2323 23.916 12.1027C24.6548 12.991 25.2496 13.8412 25.4381 14.4303C25.5531 14.828 25.4931 15.06 25.383 15.2082C25.3135 15.3013 25.1199 15.5 24.5778 15.5H21.8228C21.4772 15.5 21.2447 15.4156 20.9869 15.2229C20.6958 15.0052 20.3881 14.6628 19.9004 14.1146C19.5574 13.7288 19.1615 13.2834 18.6654 12.7804L18.6655 12.7803L18.6589 12.7739C18.1541 12.2805 17.7069 11.8862 17.3141 11.5939C16.9281 11.3066 16.5637 11.0939 16.2267 10.9983L16.2259 10.9981L15.8341 10.8876L15.8272 10.8856L15.8202 10.8839C15.7908 10.8765 15.7364 10.8644 15.6679 10.8644C15.3405 10.8644 15.0796 11.1222 15.0606 11.4378L15.0605 11.4391L15.0369 11.8478L15.0369 11.8481C15.018 12.1795 15.0219 12.6953 15.0253 13.1351L15.0256 13.1739L15.0256 13.1739L15.0258 13.1821C15.0334 13.4983 15.0341 13.6608 15.0072 13.9877L15.0038 14.0288L15.0072 14.0699C15.0294 14.3378 15.0452 14.552 15.0253 14.7402C15.0065 14.9182 14.9594 15.0276 14.8882 15.1054L14.8881 15.1054C14.8105 15.1901 14.6478 15.2943 14.3448 15.3748C14.0473 15.454 13.6529 15.5 13.1616 15.5C9.06868 15.5 5.91916 12.1413 3.94494 9.16325C2.80873 7.44797 1.94206 5.67399 1.36043 4.20576C1.06969 3.47186 0.852016 2.81899 0.707823 2.29254C0.559947 1.75265 0.5 1.38323 0.5 1.19967C0.5 0.920065 0.583016 0.770889 0.680473 0.684266C0.787258 0.589353 0.988988 0.500877 1.34914 0.500877H4.10415C4.48175 0.500877 4.6825 0.59907 4.82125 0.729477C4.98001 0.878691 5.11419 1.12248 5.25367 1.52031C6.28382 4.56363 7.83942 7.27923 8.88704 8.40959L8.88751 8.4101L9.3317 8.88804L9.33197 8.88834C9.49893 9.06769 9.702 9.11343 9.84368 9.11343C10.0395 9.11343 10.2278 9.03026 10.3596 8.89045C10.4597 8.78513 10.5639 8.6056 10.5477 8.36361L10.5077 7.71282C10.5077 7.71281 10.5077 7.7128 10.5077 7.71279C10.4313 6.46984 10.4651 5.60536 10.4928 4.89893L10.4934 4.88477L10.4934 4.88402L10.4947 4.85092C10.5185 4.26707 10.5404 3.7304 10.4521 3.22324C10.3579 2.68158 10.1427 2.18757 9.72401 1.65977L9.72382 1.65952C9.39156 1.24124 9.39867 0.964281 9.46808 0.819602L9.46834 0.819061C9.55113 0.645933 9.76834 0.5 10.02 0.5H14.351C14.6599 0.5 14.7704 0.572384 14.8124 0.615593C14.8937 0.699777 14.9801 0.901275 15.0204 1.31196C15.0588 1.70398 15.0474 2.17609 15.0336 2.70556L15.0336 2.70766Z" fill="white" stroke="white"/>
</svg>
