<svg width="24" height="16" viewBox="0 0 24 16" fill="none" xmlns="http://www.w3.org/2000/svg">
<path d="M19.9374 0H4.06172C1.81806 0 0 1.75071 0 3.91126V12.0887C0 14.2485 1.81806 16 4.06172 16H19.9383C22.1811 16 24 14.2493 24 12.0887V3.91126C24 1.75155 22.1819 0 19.9383 0H19.9374ZM16.6993 8.15587L9.49951 11.7113C9.40887 11.7562 9.29751 11.7221 9.25089 11.6357C9.23794 11.6107 9.23017 11.5833 9.23017 11.555V4.44412C9.23017 4.34603 9.31391 4.26705 9.41664 4.26789C9.44599 4.26789 9.47448 4.27454 9.50038 4.28784L16.7001 7.8433C16.7908 7.88819 16.827 7.99543 16.7804 8.08271C16.7631 8.11597 16.7346 8.14257 16.7001 8.16003V8.1567L16.6993 8.15587Z" fill="white"/>
</svg>
