<svg width="23" height="24" viewBox="0 0 23 24" fill="none" xmlns="http://www.w3.org/2000/svg">
<path d="M11.8966 12.3862C14.7497 12.3862 17.0712 10.146 17.0712 7.39274C17.0712 4.63949 14.7497 2.39999 11.8966 2.39999C9.04344 2.39999 6.72192 4.64024 6.72192 7.39349C6.72192 10.1467 9.04344 12.387 11.8966 12.387V12.3862ZM11.8966 3.17249C14.3082 3.17249 16.2707 5.06624 16.2707 7.39349C16.2707 9.72074 14.3082 11.6137 11.8966 11.6137C9.48489 11.6137 7.52322 9.72074 7.52322 7.39349C7.52322 5.06624 9.48489 3.17249 11.8966 3.17249Z" fill="#A6A6A6" stroke="#A6A6A6" stroke-width="0.5"/>
<path d="M14.4457 13.4715H9.34727C5.94233 13.4715 3.17236 16.1445 3.17236 19.4302C3.17236 20.6265 4.18118 21.6 5.42082 21.6H18.3722C19.6118 21.6 20.6206 20.6265 20.6206 19.4302C20.6206 16.1445 17.8507 13.4715 14.4457 13.4715ZM18.3722 20.8275H5.42082C4.62263 20.8275 3.97289 20.2005 3.97289 19.4302C3.97289 16.5705 6.38378 14.244 9.34727 14.244H14.4457C17.4092 14.244 19.8201 16.5705 19.8201 19.4302C19.8201 20.2005 19.1704 20.8275 18.3722 20.8275Z" fill="#A6A6A6" stroke="#A6A6A6" stroke-width="0.5"/>
</svg>
