<svg width="21" height="21" viewBox="0 0 21 21" fill="none" xmlns="http://www.w3.org/2000/svg">
<path d="M13.86 10.5C13.86 12.3556 12.3556 13.86 10.5 13.86C8.64438 13.86 7.14 12.3556 7.14 10.5C7.14 8.64438 8.64438 7.14 10.5 7.14C12.3549 7.14224 13.8578 8.64512 13.86 10.5ZM21 5.88V15.12C20.9963 18.3657 18.3657 20.9963 15.12 21H5.88C2.63434 20.9963 0.00373665 18.3657 0 15.12V5.88C0.00373665 2.63434 2.63434 0.00373665 5.88 0H15.12C18.3657 0.00373665 20.9963 2.63434 21 5.88ZM15.54 10.5C15.54 7.71619 13.2838 5.46 10.5 5.46C7.71619 5.46 5.46 7.71619 5.46 10.5C5.46 13.2838 7.71619 15.54 10.5 15.54C13.2823 15.537 15.537 13.2823 15.54 10.5ZM17.22 5.04C17.22 4.34423 16.6558 3.78 15.96 3.78C15.2642 3.78 14.7 4.34423 14.7 5.04C14.7 5.73576 15.2642 6.3 15.96 6.3C16.6558 6.3 17.22 5.73576 17.22 5.04Z" fill="black"/>
</svg>
