<svg width="14" height="18" viewBox="0 0 14 18" fill="none" xmlns="http://www.w3.org/2000/svg">
<g clip-path="url(#clip0_22_369)">
<path d="M11.5602 2.234C10.3554 1.11564 8.73601 0.5 6.99999 0.5C5.26397 0.5 3.64458 1.11564 2.43981 2.234C1.21389 3.37239 0.538452 4.93093 0.538452 6.62182C0.538452 8.56954 1.19018 10.4007 2.59041 12.3842C3.30045 13.3903 4.1079 14.3277 4.96342 15.321C5.52287 15.9706 6.10154 16.6421 6.64945 17.3342C6.73276 17.4393 6.86093 17.5 6.99999 17.5C7.09548 17.5 7.18583 17.4715 7.26273 17.4168C7.29606 17.3931 7.32554 17.3646 7.35053 17.333C7.835 16.7198 8.35664 16.1181 8.90904 15.4812C11.1468 12.9009 13.4615 10.2325 13.4615 6.62243C13.4615 4.93154 12.7861 3.373 11.5602 2.23461V2.234ZM6.99999 16.4071L6.94937 16.3452C6.51424 15.814 6.06886 15.2961 5.63822 14.794C4.79103 13.8067 3.99063 12.8742 3.31903 11.9222C2.00148 10.0558 1.41383 8.42079 1.41383 6.62182C1.41447 3.60493 3.81568 1.32996 6.99999 1.32996C10.1843 1.32996 12.5861 3.60493 12.5861 6.62243C12.5861 9.86943 10.3759 12.4474 8.23873 14.9403C7.84461 15.3993 7.43768 15.8747 7.05126 16.3464L7.00063 16.4084L6.99999 16.4071Z" fill="#EB6101" stroke="#EB6101" stroke-width="0.2"/>
<path d="M10.4461 6.57144C10.4461 4.78607 8.90008 3.33334 6.99999 3.33334C5.0999 3.33334 3.55383 4.78607 3.55383 6.57144C3.55383 8.35681 5.0999 9.80953 6.99999 9.80953C8.90008 9.80953 10.4461 8.35681 10.4461 6.57144ZM6.99999 8.98783C5.58196 8.98783 4.42834 7.90385 4.42834 6.57144C4.42834 5.23903 5.58196 4.15505 6.99999 4.15505C8.41801 4.15505 9.57164 5.23903 9.57164 6.57144C9.57164 7.90385 8.41801 8.98783 6.99999 8.98783Z" fill="#EB6101" stroke="#EB6101" stroke-width="0.2"/>
</g>
<defs>
<clipPath id="clip0_22_369">
<rect width="14" height="18" fill="white"/>
</clipPath>
</defs>
</svg>
