<svg width="21" height="16" viewBox="0 0 21 16" fill="none" xmlns="http://www.w3.org/2000/svg">
<path d="M1.16665 16C0.836115 16 0.559031 15.8931 0.335405 15.6794C0.111801 15.4657 0 15.2009 0 14.885C0 14.5691 0.111801 14.3056 0.335405 14.0945C0.559031 13.8834 0.836115 13.7778 1.16665 13.7778H13.5333C13.8639 13.7778 14.141 13.8847 14.3646 14.0984C14.5882 14.3121 14.7 14.5769 14.7 14.8928C14.7 15.2087 14.5882 15.4722 14.3646 15.6833C14.141 15.8944 13.8639 16 13.5333 16H1.16665ZM1.16665 9.1111C0.836115 9.1111 0.559031 9.00424 0.335405 8.79053C0.111801 8.57682 0 8.31201 0 7.9961C0 7.68019 0.111801 7.41668 0.335405 7.20557C0.559031 6.99446 0.836115 6.8889 1.16665 6.8889H19.8333C20.1639 6.8889 20.441 6.99576 20.6646 7.20947C20.8882 7.42318 21 7.68799 21 8.0039C21 8.31981 20.8882 8.58332 20.6646 8.79443C20.441 9.00554 20.1639 9.1111 19.8333 9.1111H1.16665ZM1.16665 2.2222C0.836115 2.2222 0.559031 2.11535 0.335405 1.90163C0.111801 1.68792 0 1.42311 0 1.1072C0 0.791289 0.111801 0.527778 0.335405 0.316667C0.559031 0.105556 0.836115 0 1.16665 0H13.5333C13.8639 0 14.141 0.106856 14.3646 0.320567C14.5882 0.534278 14.7 0.799089 14.7 1.115C14.7 1.43091 14.5882 1.69442 14.3646 1.90553C14.141 2.11664 13.8639 2.2222 13.5333 2.2222H1.16665Z" fill="#161616"/>
</svg>
