<svg width="26" height="16" viewBox="0 0 26 16" fill="none" xmlns="http://www.w3.org/2000/svg">
<path d="M25.9165 14.2847C25.4766 12.8956 23.2784 10.5988 22.2216 9.49564C21.8428 9.10014 21.657 8.90458 21.5706 8.78707L21.5636 8.77654L21.5531 8.76865C21.4929 8.72305 21.4571 8.66429 21.4475 8.59414C21.4344 8.49942 21.4685 8.38893 21.5374 8.29597L21.5418 8.29159L21.6788 8.04341C22.479 6.97967 24.9862 3.14037 25.392 1.62762L25.3946 1.61622V1.60833L25.4086 1.5601L25.4129 1.54256L25.4173 1.52765L25.419 1.52414L25.4208 1.51625C25.5718 0.964648 25.4374 0.626144 25.2969 0.439353C25.0743 0.14382 24.713 0 24.1912 0H21.4353C20.6909 0 20.149 0.359551 19.8654 1.04094C19.2859 2.52036 17.5807 5.75632 16.2438 6.9367L15.6015 7.50321C15.5946 7.51022 15.5867 7.51285 15.578 7.51285C15.564 7.51285 15.5413 7.50321 15.5413 7.4769L15.5204 6.61748C15.4811 5.02231 15.509 3.78054 15.5282 2.95884L15.5335 2.71855C15.5605 1.67761 15.5858 0.695423 15.1713 0.267471C14.9968 0.0876953 14.728 0 14.351 0H10.02C9.59235 0 9.19005 0.242039 9.01727 0.603343C8.82964 0.994464 8.94222 1.47942 9.3323 1.97051C10.0732 2.90447 10.0435 3.64111 9.99378 4.86446C9.96585 5.57742 9.93007 6.46577 10.0086 7.74349L10.0488 8.39594C10.054 8.46961 10.0234 8.51872 9.9964 8.54678C9.958 8.588 9.9004 8.61343 9.84368 8.61343C9.80528 8.61343 9.74856 8.60203 9.69794 8.54766L9.25376 8.06972C8.27114 7.00948 6.74397 4.36459 5.72644 1.35752C5.43322 0.520033 5.05972 0.000876953 4.10415 0.000876953H1.34914C0.479094 0.000876953 0 0.427076 0 1.19967C0 2.21694 1.21213 5.94311 3.52819 9.43952C5.51176 12.4317 8.79212 16 13.1616 16C14.1992 16 14.9235 15.8071 15.2568 15.4431C15.5911 15.0783 15.5483 14.5451 15.5055 14.0286C15.5343 13.6778 15.5335 13.4963 15.5256 13.1701C15.5221 12.7141 15.5178 12.1975 15.5361 11.8766L15.5596 11.4679C15.5631 11.41 15.6111 11.3644 15.6679 11.3644C15.6783 11.3644 15.6879 11.3662 15.6984 11.3688L16.0902 11.4793C16.5911 11.6214 17.3172 12.1616 18.3094 13.1315C18.7955 13.6243 19.1838 14.0611 19.5268 14.4469C20.4754 15.5133 20.9082 16 21.8228 16H24.5778C25.2716 16 25.6163 15.7317 25.7838 15.5072C26.0168 15.1941 26.0622 14.7837 25.9165 14.2847Z" fill="#161616"/>
</svg>
